M48
; DRILL file {KiCad 8.0.1} date 2024-04-28T19:56:48+0200
; FORMAT={-:-/ absolute / inch / decimal}
; #@! TF.CreationDate,2024-04-28T19:56:48+02:00
; #@! TF.GenerationSoftware,Kicad,Pcbnew,8.0.1
; #@! TF.FileFunction,Plated,1,2,PTH
FMAT,2
INCH
; #@! TA.AperFunction,Plated,PTH,ViaDrill
T1C0.0157
; #@! TA.AperFunction,Plated,PTH,ComponentDrill
T2C0.0217
; #@! TA.AperFunction,Plated,PTH,ComponentDrill
T3C0.0315
; #@! TA.AperFunction,Plated,PTH,ComponentDrill
T4C0.0320
; #@! TA.AperFunction,Plated,PTH,ComponentDrill
T5C0.0335
; #@! TA.AperFunction,Plated,PTH,ComponentDrill
T6C0.0394
; #@! TA.AperFunction,Plated,PTH,ComponentDrill
T7C0.0400
%
G90
G05
T1
X1.025Y1.35
X1.025Y1.2
X1.375Y1.55
X1.6Y1.55
X1.65Y1.4715
X2.0Y1.95
X2.1Y1.4
X2.975Y1.675
X3.15Y1.3
X3.199Y1.775
X3.225Y1.3
X3.275Y1.825
X3.275Y1.775
X3.2965Y1.2714
X3.3215Y0.55
X3.3465Y1.2724
X3.375Y1.2401
X3.4Y1.55
X3.4Y0.675
X3.425Y0.35
X3.4464Y1.575
X3.525Y0.8
X3.55Y1.6785
X3.55Y1.6214
X3.55Y1.5
X3.5535Y1.4
X3.7Y0.9
X3.775Y1.0
X3.8679Y0.8571
X3.925Y0.975
X3.925Y0.9
X3.925Y0.8523
X4.025Y1.85
T3
X0.7Y1.3498
X0.7Y1.2002
X3.1071Y1.95
X3.1525Y1.075
X3.251Y1.075
X3.3Y1.95
T4
X1.225Y2.4
X1.225Y2.3
X1.225Y2.2
X1.225Y2.1
X1.225Y2.0
X1.225Y1.9
X1.225Y1.8
X1.225Y1.7
X1.225Y1.6
X1.225Y1.5
X1.225Y1.4
X1.225Y1.3
X1.225Y1.2
X1.225Y1.1
X1.225Y1.0
X1.225Y0.9
X1.225Y0.8
X1.225Y0.7
X1.225Y0.6
X1.225Y0.5
X1.825Y2.4
X1.825Y2.3
X1.825Y2.2
X1.825Y2.1
X1.825Y2.0
X1.825Y1.9
X1.825Y1.8
X1.825Y1.7
X1.825Y1.6
X1.825Y1.5
X1.825Y1.4
X1.825Y1.3
X1.825Y1.2
X1.825Y1.1
X1.825Y1.0
X1.825Y0.9
X1.825Y0.8
X1.825Y0.7
X1.825Y0.6
X1.825Y0.5
T6
X3.975Y1.8
X3.975Y1.7
X3.975Y1.6
X3.975Y1.5
X3.975Y1.4
X4.075Y1.8
X4.075Y1.7
X4.075Y1.6
X4.075Y1.5
X4.075Y1.4
T7
X0.75Y2.55
X0.75Y2.45
X0.75Y2.35
X0.75Y2.25
X0.75Y2.15
X0.75Y2.05
X0.75Y1.95
X0.75Y1.85
X0.75Y1.0
X0.75Y0.9
X0.75Y0.8
X0.75Y0.7
X0.75Y0.6
X0.75Y0.5
X0.75Y0.4
X0.75Y0.3
X2.25Y2.55
X2.25Y2.45
X2.25Y2.35
X2.25Y2.25
X2.25Y2.15
X2.25Y2.05
X2.25Y1.95
X2.25Y1.85
X2.25Y1.75
X2.25Y1.0
X2.25Y0.9
X2.25Y0.8
X2.25Y0.7
X2.25Y0.6
X2.25Y0.5
X2.25Y0.4
X2.25Y0.3
X2.272Y1.589
X2.272Y1.411
X2.528Y1.589
X2.528Y1.411
T2
G00X4.139Y1.0275
M15
G01X4.1646Y1.0275
M16
G05
G00X4.139Y0.7224
M15
G01X4.1646Y0.7224
M16
G05
T5
G00X3.9913Y1.0216
M15
G01X4.013Y1.0216
M16
G05
G00X3.9913Y0.7283
M15
G01X4.013Y0.7283
M16
G05
M30
